<svg xmlns="http://www.w3.org/2000/svg" version="1.1" xmlns:xlink="http://www.w3.org/1999/xlink" xmlns:svgjs="http://svgjs.dev/svgjs" width="1990" height="400" preserveAspectRatio="none" viewBox="0 0 1990 400"><g mask="url(&quot;#SvgjsMask1107&quot;)" fill="none"><path d="M2023.1666666666663 400L0 400 L0 288.81Q77.32 200.3, 165.83333333333331 277.62Q191.06 203.35, 265.3333333333333 228.57Q331.08 194.81, 364.8333333333333 260.56Q464.44 194.33, 530.6666666666666 293.93Q540 203.76, 630.1666666666666 213.1Q687.97 171.4, 729.6666666666666 229.2Q793.56 193.59, 829.1666666666666 257.48Q931.7 194.18, 995 296.72Q1010.83 213.05, 1094.5 228.87Q1196.56 165.09, 1260.3333333333333 267.15Q1350.15 191.14, 1426.1666666666665 280.96Q1515.14 204.1, 1591.9999999999998 293.07Q1653.71 188.94, 1757.833333333333 250.65Q1833.36 160.35, 1923.6666666666663 235.88Q1998.97 211.69, 2023.1666666666663 286.99z" fill="rgba(160, 206, 212, 1)"></path><path d="M2122.6666666666665 400L0 400 L0 277.19Q84.1 195.45, 165.83333333333331 279.55Q244.12 258.34, 265.3333333333333 336.63Q353.73 259.19, 431.16666666666663 347.59Q453.94 270.86, 530.6666666666666 293.63Q621.23 218.36, 696.5 308.92Q761.1 274.02, 796 338.62Q869.48 246.27, 961.8333333333333 319.75Q1027.06 285.48, 1061.3333333333333 350.7Q1081.65 271.52, 1160.8333333333333 291.84Q1204.3 235.81, 1260.3333333333333 279.28Q1383.65 236.76, 1426.1666666666665 360.08Q1454.62 289.03, 1525.6666666666665 317.48Q1552.87 245.18, 1625.1666666666665 272.38Q1714.11 195.49, 1790.9999999999998 284.44Q1904.42 232.03, 1956.833333333333 345.45Q2026.67 249.46, 2122.6666666666665 319.3z" fill="rgba(237, 216, 186, 1)"></path><path d="M2056.333333333333 400L0 400 L0 398.29Q84.9 317.35, 165.83333333333331 402.25Q224.21 294.79, 331.66666666666663 353.16Q445.86 301.52, 497.49999999999994 415.72Q569.15 321.54, 663.3333333333333 393.19Q699.08 329.44, 762.8333333333333 365.19Q819.48 322.34, 862.3333333333333 378.99Q928.96 279.78, 1028.1666666666665 346.41Q1141.22 293.63, 1193.9999999999998 406.69Q1257.68 304.53, 1359.833333333333 368.21Q1415.47 324.35, 1459.333333333333 379.99Q1528.93 350.09, 1558.833333333333 419.69Q1633.19 328.22, 1724.6666666666663 402.58Q1799.78 311.86, 1890.4999999999995 386.97Q1948.85 279.48, 2056.333333333333 337.83z" fill="rgba(255, 255, 255, 1)"></path></g><defs><mask id="SvgjsMask1107"><rect width="1990" height="400" fill="#ffffff"></rect></mask></defs></svg>