<svg id="visual" viewBox="0 0 900 450" width="900" height="450" xmlns="http://www.w3.org/2000/svg" xmlns:xlink="http://www.w3.org/1999/xlink" version="1.1"><g stroke-width="1" stroke-linejoin="bevel"><path d="M497 208L510 273L595 283Z" fill="#eee1ce" stroke="#eee1ce"></path><path d="M595 283L612 143L497 208Z" fill="#e9bd80" stroke="#e9bd80"></path><path d="M530 372L630 325L595 283Z" fill="#edd3b0" stroke="#edd3b0"></path><path d="M595 283L704 201L612 143Z" fill="#e8b876" stroke="#e8b876"></path><path d="M510 273L530 372L595 283Z" fill="#ebc693" stroke="#ebc693"></path><path d="M612 143L473 110L497 208Z" fill="#edd8ba" stroke="#edd8ba"></path><path d="M497 208L370 230L510 273Z" fill="#eccfa6" stroke="#eccfa6"></path><path d="M510 273L435 397L530 372Z" fill="#eee1ce" stroke="#eee1ce"></path><path d="M731 237L704 201L595 283Z" fill="#edd3b0" stroke="#edd3b0"></path><path d="M630 325L731 237L595 283Z" fill="#eccfa6" stroke="#eccfa6"></path><path d="M664 70L592 50L612 143Z" fill="#eee5d8" stroke="#eee5d8"></path><path d="M612 143L592 50L473 110Z" fill="#ebc693" stroke="#ebc693"></path><path d="M664 70L612 143L704 201Z" fill="#eee1ce" stroke="#eee1ce"></path><path d="M372 183L370 230L497 208Z" fill="#eac189" stroke="#eac189"></path><path d="M630 325L714 336L731 237Z" fill="#eccfa6" stroke="#eccfa6"></path><path d="M694 450L714 336L630 325Z" fill="#eee5d8" stroke="#eee5d8"></path><path d="M809 62L664 70L704 201Z" fill="#eac189" stroke="#eac189"></path><path d="M473 110L372 183L497 208Z" fill="#e8b876" stroke="#e8b876"></path><path d="M370 230L435 397L510 273Z" fill="#ebc693" stroke="#ebc693"></path><path d="M530 372L577 450L630 325Z" fill="#eee5d8" stroke="#eee5d8"></path><path d="M835 294L774 208L731 237Z" fill="#e9bd80" stroke="#e9bd80"></path><path d="M731 237L774 208L704 201Z" fill="#eee1ce" stroke="#eee1ce"></path><path d="M486 450L577 450L530 372Z" fill="#edd8ba" stroke="#edd8ba"></path><path d="M473 110L378 101L372 183Z" fill="#ebc693" stroke="#ebc693"></path><path d="M403 0L378 101L473 110Z" fill="#edd8ba" stroke="#edd8ba"></path><path d="M378 101L339 195L372 183Z" fill="#ebca9c" stroke="#ebca9c"></path><path d="M372 183L339 195L370 230Z" fill="#eccfa6" stroke="#eccfa6"></path><path d="M330 450L420 450L435 397Z" fill="#eac189" stroke="#eac189"></path><path d="M598 0L536 0L592 50Z" fill="#eccfa6" stroke="#eccfa6"></path><path d="M592 50L536 0L473 110Z" fill="#eccfa6" stroke="#eccfa6"></path><path d="M435 397L486 450L530 372Z" fill="#ebca9c" stroke="#ebca9c"></path><path d="M664 70L598 0L592 50Z" fill="#e9bd80" stroke="#e9bd80"></path><path d="M577 450L694 450L630 325Z" fill="#eddcc4" stroke="#eddcc4"></path><path d="M714 336L835 294L731 237Z" fill="#ebc693" stroke="#ebc693"></path><path d="M280 262L435 397L370 230Z" fill="#edd3b0" stroke="#edd3b0"></path><path d="M435 397L420 450L486 450Z" fill="#eccfa6" stroke="#eccfa6"></path><path d="M809 62L688 0L664 70Z" fill="#e8b876" stroke="#e8b876"></path><path d="M664 70L688 0L598 0Z" fill="#e8b876" stroke="#e8b876"></path><path d="M694 450L778 381L714 336Z" fill="#eddcc4" stroke="#eddcc4"></path><path d="M536 0L403 0L473 110Z" fill="#ebc693" stroke="#ebc693"></path><path d="M194 186L280 262L339 195Z" fill="#eee5d8" stroke="#eee5d8"></path><path d="M307 83L339 195L378 101Z" fill="#ebca9c" stroke="#ebca9c"></path><path d="M339 195L280 262L370 230Z" fill="#e9bd80" stroke="#e9bd80"></path><path d="M778 381L835 294L714 336Z" fill="#eee1ce" stroke="#eee1ce"></path><path d="M774 208L809 62L704 201Z" fill="#eddcc4" stroke="#eddcc4"></path><path d="M403 0L307 83L378 101Z" fill="#eddcc4" stroke="#eddcc4"></path><path d="M900 117L809 62L774 208Z" fill="#edd8ba" stroke="#edd8ba"></path><path d="M261 379L330 450L435 397Z" fill="#e8b876" stroke="#e8b876"></path><path d="M778 381L900 340L835 294Z" fill="#edd3b0" stroke="#edd3b0"></path><path d="M694 450L791 450L778 381Z" fill="#e9bd80" stroke="#e9bd80"></path><path d="M224 303L261 379L280 262Z" fill="#eddcc4" stroke="#eddcc4"></path><path d="M280 262L261 379L435 397Z" fill="#eccfa6" stroke="#eccfa6"></path><path d="M900 340L900 230L835 294Z" fill="#e8b876" stroke="#e8b876"></path><path d="M835 294L900 230L774 208Z" fill="#edd8ba" stroke="#edd8ba"></path><path d="M194 186L224 303L280 262Z" fill="#eee5d8" stroke="#eee5d8"></path><path d="M900 230L900 170L774 208Z" fill="#ebca9c" stroke="#ebca9c"></path><path d="M403 0L296 0L307 83Z" fill="#edd8ba" stroke="#edd8ba"></path><path d="M307 83L211 116L339 195Z" fill="#eac189" stroke="#eac189"></path><path d="M900 0L821 0L809 62Z" fill="#e8b876" stroke="#e8b876"></path><path d="M809 62L821 0L688 0Z" fill="#eccfa6" stroke="#eccfa6"></path><path d="M900 450L900 340L778 381Z" fill="#edd8ba" stroke="#edd8ba"></path><path d="M900 170L900 117L774 208Z" fill="#e9bd80" stroke="#e9bd80"></path><path d="M228 0L211 116L307 83Z" fill="#e9bd80" stroke="#e9bd80"></path><path d="M211 116L194 186L339 195Z" fill="#e8b876" stroke="#e8b876"></path><path d="M124 309L196 331L224 303Z" fill="#edd8ba" stroke="#edd8ba"></path><path d="M224 303L196 331L261 379Z" fill="#e8b876" stroke="#e8b876"></path><path d="M261 379L189 450L330 450Z" fill="#eee5d8" stroke="#eee5d8"></path><path d="M111 176L124 309L194 186Z" fill="#edd3b0" stroke="#edd3b0"></path><path d="M296 0L228 0L307 83Z" fill="#ebc693" stroke="#ebc693"></path><path d="M791 450L900 450L778 381Z" fill="#ebca9c" stroke="#ebca9c"></path><path d="M900 117L900 0L809 62Z" fill="#edd8ba" stroke="#edd8ba"></path><path d="M90 369L189 450L196 331Z" fill="#edd3b0" stroke="#edd3b0"></path><path d="M196 331L189 450L261 379Z" fill="#eddcc4" stroke="#eddcc4"></path><path d="M194 186L124 309L224 303Z" fill="#e9bd80" stroke="#e9bd80"></path><path d="M111 176L194 186L211 116Z" fill="#ebc693" stroke="#ebc693"></path><path d="M108 74L111 176L211 116Z" fill="#edd8ba" stroke="#edd8ba"></path><path d="M228 0L108 74L211 116Z" fill="#eee1ce" stroke="#eee1ce"></path><path d="M0 330L90 369L124 309Z" fill="#edd8ba" stroke="#edd8ba"></path><path d="M124 309L90 369L196 331Z" fill="#eac189" stroke="#eac189"></path><path d="M0 285L124 309L111 176Z" fill="#edd3b0" stroke="#edd3b0"></path><path d="M90 369L114 450L189 450Z" fill="#edd8ba" stroke="#edd8ba"></path><path d="M228 0L63 0L108 74Z" fill="#ebca9c" stroke="#ebca9c"></path><path d="M0 104L0 196L111 176Z" fill="#eddcc4" stroke="#eddcc4"></path><path d="M0 104L111 176L108 74Z" fill="#ebc693" stroke="#ebc693"></path><path d="M90 369L0 450L114 450Z" fill="#edd8ba" stroke="#edd8ba"></path><path d="M0 196L0 285L111 176Z" fill="#eee1ce" stroke="#eee1ce"></path><path d="M0 285L0 330L124 309Z" fill="#eddcc4" stroke="#eddcc4"></path><path d="M63 0L0 104L108 74Z" fill="#eccfa6" stroke="#eccfa6"></path><path d="M0 330L0 450L90 369Z" fill="#ebc693" stroke="#ebc693"></path><path d="M63 0L0 0L0 104Z" fill="#edd3b0" stroke="#edd3b0"></path></g></svg>