<svg xmlns="http://www.w3.org/2000/svg" version="1.1" xmlns:xlink="http://www.w3.org/1999/xlink" xmlns:svgjs="http://svgjs.dev/svgjs" width="1990" height="70" preserveAspectRatio="none" viewBox="0 0 1990 70"><g mask="url(&quot;#SvgjsMask1113&quot;)" fill="none"><path d="M2023.1666666666663 70L0 70 L0 38.1Q51.49 -9.91, 99.5 41.58Q185.17 -38.59, 265.3333333333333 47.08Q347.92 -36.17, 431.16666666666663 46.41Q478.06 -6.2, 530.6666666666666 40.7Q579.53 -9.94, 630.1666666666666 38.92Q719.62 -37.46, 796 51.99Q841.93 -1.57, 895.5 44.36Q942.82 -7.82, 995 39.5Q1080.94 -40.39, 1160.8333333333333 45.55Q1239.67 -41.45, 1326.6666666666665 37.39Q1410.02 -45.09, 1492.4999999999998 38.27Q1581.7 -38.36, 1658.333333333333 50.84Q1706.63 -0.36, 1757.833333333333 47.93Q1802.37 -7.03, 1857.333333333333 37.5Q1945.26 -40.4, 2023.1666666666663 47.53z" fill="rgba(160, 206, 212, 1)"></path><path d="M2122.666666666666 70L0 70 L0 61.37Q80.46 -24, 165.83333333333331 56.46Q216.23 7.36, 265.3333333333333 57.75Q349.88 -23.54, 431.16666666666663 61Q510.61 -25.39, 597 54.05Q649.67 7.22, 696.5 59.89Q740.65 4.55, 796 48.7Q879.66 -33.48, 961.8333333333333 50.18Q1050.29 -27.2, 1127.6666666666665 61.25Q1204.19 -28.06, 1293.4999999999998 48.46Q1376.18 -34.7, 1459.333333333333 47.98Q1549.34 -27.84, 1625.1666666666663 62.17Q1704.56 -24.27, 1790.9999999999995 55.13Q1876.92 -24.78, 1956.8333333333328 61.14Q2035.26 -26.27, 2122.666666666666 52.16z" fill="rgba(237, 216, 186, 1)"></path><path d="M2089.4999999999995 70L0 70 L0 71.55Q81.57 -12.71, 165.83333333333331 68.86Q250.89 -11.91, 331.66666666666663 73.15Q413.77 -10.58, 497.49999999999994 71.53Q542.13 16.66, 597 61.29Q646.73 11.52, 696.5 61.24Q784.91 -16.19, 862.3333333333333 72.22Q912.52 22.91, 961.8333333333333 73.09Q1039.17 -15.4, 1127.6666666666665 61.94Q1210.76 -20.8, 1293.4999999999998 62.29Q1381.83 -15.22, 1459.333333333333 73.11Q1505.1 19.38, 1558.833333333333 65.15Q1609.65 16.47, 1658.333333333333 67.28Q1741.23 -15.65, 1824.1666666666663 67.25Q1872.99 16.57, 1923.6666666666663 65.4Q2008.96 -15.14, 2089.4999999999995 70.16z" fill="rgba(255, 255, 255, 1)"></path></g><defs><mask id="SvgjsMask1113"><rect width="1990" height="70" fill="#ffffff"></rect></mask></defs></svg>